<svg width="24" height="25" viewBox="0 0 24 25" fill="none" xmlns="http://www.w3.org/2000/svg"><path fill-rule="evenodd" clip-rule="evenodd" d="M12 18.5a6 6 0 1 0 0-12 6 6 0 0 0 0 12zm0-2a4 4 0 1 0 0-8 4 4 0 0 0 0 8z" fill="#0F0F0F"/><path d="M18 5.5a1 1 0 1 0 0 2 1 1 0 0 0 0-2z" fill="#0F0F0F"/><path fill-rule="evenodd" clip-rule="evenodd" d="M1.654 4.776C1 6.06 1 7.74 1 11.1v2.8c0 3.36 0 5.04.654 6.324a6 6 0 0 0 2.622 2.622c1.284.654 2.964.654 6.324.654h2.8c3.36 0 5.04 0 6.324-.654a6 6 0 0 0 2.622-2.622C23 18.94 23 17.26 23 13.9v-2.8c0-3.36 0-5.04-.654-6.324a6 6 0 0 0-2.622-2.622C18.44 1.5 16.76 1.5 13.4 1.5h-2.8c-3.36 0-5.04 0-6.324.654a6 6 0 0 0-2.622 2.622zM13.4 3.5h-2.8c-1.713 0-2.878.002-3.778.075-.877.072-1.325.202-1.638.36a4 4 0 0 0-1.748 1.75c-.16.312-.29.76-.36 1.637C3.001 8.222 3 9.387 3 11.1v2.8c0 1.713.002 2.878.075 3.778.072.877.202 1.325.36 1.638a4 4 0 0 0 1.75 1.748c.312.16.76.29 1.637.36.9.074 2.065.076 3.778.076h2.8c1.713 0 2.878-.002 3.778-.075.877-.072 1.325-.202 1.638-.36a4 4 0 0 0 1.748-1.75c.16-.312.29-.76.36-1.637.074-.9.076-2.065.076-3.778v-2.8c0-1.713-.002-2.878-.075-3.778-.072-.877-.202-1.325-.36-1.638a4 4 0 0 0-1.75-1.748c-.312-.16-.76-.29-1.637-.36-.9-.074-2.065-.076-3.778-.076z" fill="#0F0F0F"/></svg>