<?xml version="1.0" encoding="UTF-8"?>
<!DOCTYPE svg PUBLIC "-//W3C//DTD SVG 1.1//EN" "http://www.w3.org/Graphics/SVG/1.1/DTD/svg11.dtd">
<svg xmlns="http://www.w3.org/2000/svg" version="1.1" width="363px" height="314px" style="shape-rendering:geometricPrecision; text-rendering:geometricPrecision; image-rendering:optimizeQuality; fill-rule:evenodd; clip-rule:evenodd" xmlns:xlink="http://www.w3.org/1999/xlink">
<g><path style="opacity:1" fill="#fefefe" d="M -0.5,-0.5 C 120.5,-0.5 241.5,-0.5 362.5,-0.5C 362.5,104.167 362.5,208.833 362.5,313.5C 241.5,313.5 120.5,313.5 -0.5,313.5C -0.5,208.833 -0.5,104.167 -0.5,-0.5 Z"/></g>
<g><path style="opacity:1" fill="#b31512" d="M 160.5,31.5 C 200.83,29.0065 237.497,39.1732 270.5,62C 320.438,101.342 335.271,151.176 315,211.5C 296.259,250.794 266.093,276.961 224.5,290C 181.842,302.757 140.509,299.424 100.5,280C 40.0649,246.628 16.8983,196.128 31,128.5C 48.3874,82.1146 80.8874,51.9479 128.5,38C 139.19,35.2787 149.856,33.112 160.5,31.5 Z"/></g>
<g><path style="opacity:1" fill="#fefdfd" d="M 161.5,46.5 C 207.695,43.7249 247.195,58.3915 280,90.5C 315.119,132.545 318.786,177.212 291,224.5C 265.601,258.795 231.435,277.961 188.5,282C 142.294,285.27 102.794,270.77 70,238.5C 34.8809,196.455 31.2142,151.788 59,104.5C 84.6047,70.2748 118.771,50.9415 161.5,46.5 Z"/></g>
<g><path style="opacity:1" fill="#040404" d="M 198.5,103.5 C 226.219,99.6216 248.052,108.955 264,131.5C 271.16,144.979 273.494,159.312 271,174.5C 263.376,206.289 243.209,222.289 210.5,222.5C 182.989,222.666 164.156,209.999 154,184.5C 152.229,178.27 151.063,171.936 150.5,165.5C 143.833,165.5 137.167,165.5 130.5,165.5C 130.333,180.837 130.5,196.17 131,211.5C 134.815,216.877 139.982,218.877 146.5,217.5C 146.5,218.5 146.5,219.5 146.5,220.5C 126.5,220.5 106.5,220.5 86.5,220.5C 86.5,219.5 86.5,218.5 86.5,217.5C 93.1084,218.885 98.275,216.885 102,211.5C 102.667,178.833 102.667,146.167 102,113.5C 97.6228,109.61 92.4562,107.943 86.5,108.5C 86.5,107.5 86.5,106.5 86.5,105.5C 106.5,105.5 126.5,105.5 146.5,105.5C 146.5,106.5 146.5,107.5 146.5,108.5C 139.613,107.286 134.447,109.619 131,115.5C 130.5,129.496 130.333,143.496 130.5,157.5C 137.167,157.5 143.833,157.5 150.5,157.5C 152.67,135.328 163.67,119.161 183.5,109C 188.571,107.035 193.571,105.202 198.5,103.5 Z"/></g>
<g><path style="opacity:1" fill="#fcfcfc" d="M 205.5,109.5 C 219.755,108.04 229.922,113.707 236,126.5C 241.248,142.759 242.915,159.426 241,176.5C 240.871,190.906 235.704,203.073 225.5,213C 206.913,221.364 193.747,216.197 186,197.5C 179.088,175.266 178.754,152.933 185,130.5C 188.711,120.29 195.545,113.29 205.5,109.5 Z"/></g>
</svg>
