<svg xmlns="http://www.w3.org/2000/svg" viewBox="0 0 32 32" width="32" height="32" fill='#b20f0f'><path d="M26.07 3.996a2.974 2.974 0 0 0-.933.223l-.004-.001c-.285.112-1.64.682-3.7 1.546l-7.382 3.11C8.755 11.105 3.548 13.3 3.548 13.3l.062-.023s-.36.118-.735.375a2.03 2.03 0 0 0-.586.567c-.185.268-.333.682-.278 1.108.09.723.558 1.156.894 1.395.34.242.664.355.664.355h.008l4.883 1.645c.22.703 1.49 4.875 1.794 5.836.18.573.355.932.574 1.206.106.14.23.257.38.351a1.12 1.12 0 0 0 .245.106l-.05-.012c.015.005.027.017.038.02.04.012.068.016.119.024.772.234 1.393-.246 1.393-.246l.035-.028 2.883-2.625 4.833 3.708.11.046c1.007.44 2.027.195 2.566-.239.542-.436.753-.995.753-.995l.035-.09 3.734-19.129c.106-.472.133-.914.016-1.344a1.807 1.807 0 0 0-.781-1.046 1.872 1.872 0 0 0-1.067-.27zm-.101 2.05c-.005.063.007.056-.02.177v.011l-3.7 18.93c-.016.027-.043.086-.117.145-.078.061-.14.1-.465-.029l-5.91-4.53-3.57 3.254.75-4.79 9.656-9c.398-.37.265-.448.265-.448.027-.453-.602-.133-.602-.133l-12.176 7.543-.004-.02-5.836-1.965v-.002c-.004 0-.012-.004-.015-.004.003 0 .03-.012.03-.012l.032-.016.03-.011s5.211-2.196 10.508-4.426l7.38-3.11c2.054-.864 3.573-1.497 3.66-1.532.081-.031.042-.031.1-.031z"/></svg>